<svg width="640" height="420" viewBox="0 0 640 420" fill="none" xmlns="http://www.w3.org/2000/svg">
  <rect width="640" height="420" rx="28" fill="#F4F6F8"/>
  <rect x="30" y="28" width="580" height="54" rx="16" fill="#162032"/>
  <rect x="54" y="47" width="118" height="16" rx="8" fill="#E9EDF1"/>
  <rect x="196" y="47" width="88" height="16" rx="8" fill="#3A475C"/>
  <rect x="298" y="47" width="88" height="16" rx="8" fill="#3A475C"/>
  <rect x="400" y="47" width="88" height="16" rx="8" fill="#3A475C"/>
  <rect x="76" y="116" width="488" height="252" rx="22" fill="white" stroke="#D3DAE3" stroke-width="2"/>
  <rect x="98" y="138" width="444" height="28" rx="10" fill="#E9EDF1"/>
  <rect x="116" y="184" width="88" height="20" rx="10" fill="#8A9BB0"/>
  <rect x="220" y="184" width="122" height="20" rx="10" fill="#D7DEE7"/>
  <rect x="360" y="184" width="80" height="20" rx="10" fill="#D7DEE7"/>
  <rect x="456" y="184" width="62" height="20" rx="10" fill="#CED7E2"/>
  <rect x="116" y="224" width="112" height="20" rx="10" fill="#162032"/>
  <rect x="244" y="224" width="116" height="20" rx="10" fill="#D7DEE7"/>
  <rect x="378" y="224" width="76" height="20" rx="10" fill="#8A9BB0"/>
  <rect x="470" y="224" width="48" height="20" rx="10" fill="#D7DEE7"/>
  <rect x="116" y="264" width="96" height="20" rx="10" fill="#D7DEE7"/>
  <rect x="228" y="264" width="138" height="20" rx="10" fill="#D7DEE7"/>
  <rect x="382" y="264" width="84" height="20" rx="10" fill="#162032"/>
  <rect x="482" y="264" width="36" height="20" rx="10" fill="#D7DEE7"/>
  <rect x="116" y="304" width="76" height="20" rx="10" fill="#8A9BB0"/>
  <rect x="208" y="304" width="164" height="20" rx="10" fill="#D7DEE7"/>
  <rect x="388" y="304" width="130" height="20" rx="10" fill="#D7DEE7"/>
  <circle cx="552" cy="152" r="8" fill="#8A9BB0"/>
  <circle cx="552" cy="194" r="8" fill="#162032"/>
  <circle cx="552" cy="236" r="8" fill="#8A9BB0"/>
</svg>
