<svg width="640" height="420" viewBox="0 0 640 420" fill="none" xmlns="http://www.w3.org/2000/svg">
  <rect width="640" height="420" rx="28" fill="#F4F6F8"/>
  <rect x="44" y="38" width="552" height="344" rx="26" fill="white" stroke="#D3DAE3" stroke-width="2"/>
  <rect x="70" y="64" width="146" height="34" rx="12" fill="#162032"/>
  <rect x="86" y="75" width="72" height="12" rx="6" fill="#E9EDF1"/>
  <rect x="470" y="64" width="100" height="34" rx="12" fill="#8A9BB0"/>
  <rect x="70" y="122" width="176" height="230" rx="18" fill="#F4F6F8"/>
  <rect x="96" y="148" width="96" height="18" rx="9" fill="#162032"/>
  <rect x="96" y="182" width="124" height="14" rx="7" fill="#D3DAE3"/>
  <rect x="96" y="206" width="110" height="14" rx="7" fill="#D3DAE3"/>
  <rect x="96" y="230" width="88" height="14" rx="7" fill="#D3DAE3"/>
  <rect x="96" y="272" width="124" height="28" rx="12" fill="#8A9BB0"/>
  <path d="M128 324c18-18 36-18 54 0" stroke="#162032" stroke-width="10" stroke-linecap="round"/>
  <circle cx="122" cy="330" r="13" fill="#162032"/>
  <circle cx="182" cy="330" r="13" fill="#162032"/>
  <rect x="268" y="122" width="302" height="230" rx="18" fill="#F4F6F8"/>
  <rect x="292" y="148" width="162" height="20" rx="10" fill="#D3DAE3"/>
  <rect x="470" y="148" width="76" height="20" rx="10" fill="#162032"/>
  <rect x="292" y="188" width="112" height="18" rx="9" fill="#162032"/>
  <rect x="420" y="188" width="58" height="18" rx="9" fill="#8A9BB0"/>
  <rect x="494" y="188" width="52" height="18" rx="9" fill="#D3DAE3"/>
  <rect x="292" y="224" width="94" height="18" rx="9" fill="#D3DAE3"/>
  <rect x="402" y="224" width="72" height="18" rx="9" fill="#162032"/>
  <rect x="490" y="224" width="56" height="18" rx="9" fill="#D3DAE3"/>
  <rect x="292" y="260" width="76" height="18" rx="9" fill="#8A9BB0"/>
  <rect x="384" y="260" width="88" height="18" rx="9" fill="#D3DAE3"/>
  <rect x="488" y="260" width="58" height="18" rx="9" fill="#162032"/>
  <rect x="292" y="296" width="124" height="18" rx="9" fill="#D3DAE3"/>
  <rect x="432" y="296" width="114" height="18" rx="9" fill="#D3DAE3"/>
</svg>
