<svg width="640" height="420" viewBox="0 0 640 420" fill="none" xmlns="http://www.w3.org/2000/svg">
  <rect width="640" height="420" rx="28" fill="#F4F6F8"/>
  <rect x="42" y="38" width="556" height="344" rx="26" fill="white" stroke="#D3DAE3" stroke-width="2"/>
  <rect x="68" y="66" width="180" height="34" rx="12" fill="#162032"/>
  <rect x="86" y="77" width="72" height="12" rx="6" fill="#E9EDF1"/>
  <rect x="268" y="66" width="104" height="34" rx="12" fill="#E9EDF1"/>
  <rect x="388" y="66" width="104" height="34" rx="12" fill="#E9EDF1"/>
  <rect x="508" y="66" width="64" height="34" rx="12" fill="#8A9BB0"/>
  <rect x="68" y="126" width="160" height="214" rx="18" fill="#F4F6F8"/>
  <rect x="92" y="150" width="112" height="22" rx="11" fill="#162032"/>
  <rect x="92" y="190" width="92" height="14" rx="7" fill="#D3DAE3"/>
  <rect x="92" y="214" width="112" height="14" rx="7" fill="#D3DAE3"/>
  <rect x="92" y="238" width="82" height="14" rx="7" fill="#D3DAE3"/>
  <rect x="92" y="282" width="112" height="34" rx="12" fill="#8A9BB0"/>
  <rect x="254" y="126" width="318" height="214" rx="18" fill="#F4F6F8"/>
  <rect x="278" y="152" width="270" height="22" rx="11" fill="#D3DAE3"/>
  <rect x="278" y="192" width="88" height="18" rx="9" fill="#162032"/>
  <rect x="382" y="192" width="82" height="18" rx="9" fill="#8A9BB0"/>
  <rect x="480" y="192" width="68" height="18" rx="9" fill="#D3DAE3"/>
  <rect x="278" y="228" width="96" height="18" rx="9" fill="#D3DAE3"/>
  <rect x="390" y="228" width="74" height="18" rx="9" fill="#162032"/>
  <rect x="480" y="228" width="68" height="18" rx="9" fill="#D3DAE3"/>
  <rect x="278" y="264" width="74" height="18" rx="9" fill="#8A9BB0"/>
  <rect x="368" y="264" width="102" height="18" rx="9" fill="#D3DAE3"/>
  <rect x="486" y="264" width="62" height="18" rx="9" fill="#162032"/>
  <rect x="278" y="300" width="126" height="18" rx="9" fill="#D3DAE3"/>
  <rect x="420" y="300" width="128" height="18" rx="9" fill="#D3DAE3"/>
</svg>
